<?xml version="1.0" encoding="UTF-8"?>
<svg width="105px" height="30px" viewBox="0 0 105 30" version="1.1" xmlns="http://www.w3.org/2000/svg" xmlns:xlink="http://www.w3.org/1999/xlink">
    <!-- Generator: Sketch 61.1 (89650) - https://sketch.com -->
    <title>Group 20</title>
    <desc>Created with Sketch.</desc>
    <g id="Page-1" stroke="none" stroke-width="1" fill="none" fill-rule="evenodd">
        <g id="Header-Logo" transform="translate(-89.000000, -10.000000)" fill="#FFFFFF">
            <g id="Group-20" transform="translate(89.000000, 10.000000)">
                <g id="Group-19" transform="translate(41.000000, 8.000000)">
                    <g id="Group-22">
                        <g id="Group-21">
                            <polygon id="Fill-1" points="11.3917446 11.936627 13.1131959 11.936627 13.1131959 3.44455152 11.3917446 3.44455152"></polygon>
                            <polygon id="Fill-2" points="53.5683483 11.936627 55.2897997 11.936627 55.2897997 3.44455152 53.5683483 3.44455152"></polygon>
                            <path d="M16.6977765,0.420017417 L16.6977765,3.44445864 L14.6122032,3.44445864 L14.6122032,5.2683193 L16.6977765,5.2683193 C16.6977765,6.4705254 16.725643,8.67592453 16.725643,8.67592453 C16.725643,10.8687837 18.0676459,11.9365341 19.4830305,11.9365341 L21.152,11.9365341 L21.152,10.1853585 L20.3129869,10.1853585 C18.9907228,10.1558665 18.5792279,9.80730334 18.5748157,8.67592453 L18.5748157,5.2683193 L21.152,5.2683193 L21.152,3.44445864 L18.5748157,3.44445864 L18.5748157,0.420017417 L16.6977765,0.420017417 Z" id="Fill-3"></path>
                            <path d="M24.5386357,6.13944848 C24.5386357,3.91825835 26.3385776,2.11738752 28.5590711,2.11738752 C30.7795646,2.11738752 32.5792743,3.91825835 32.5792743,6.13944848 C32.5792743,8.36087083 30.7795646,10.1617417 28.5590711,10.1617417 C26.3385776,10.1617417 24.5386357,8.36087083 24.5386357,6.13944848 M34.6065602,6.13944848 C34.6065602,2.79802612 31.8991001,0.0889404935 28.5590711,0.0889404935 C25.2188099,0.0889404935 22.5113498,2.79802612 22.5113498,6.13944848 C22.5113498,9.48133527 25.2188099,12.1901887 28.5590711,12.1901887 C31.8991001,12.1901887 34.6065602,9.48133527 34.6065602,6.13944848" id="Fill-5"></path>
                            <path d="M39.9778926,10.1500377 C38.6026821,10.1500377 37.4882554,9.03468215 37.4882554,7.65923948 C37.4882554,6.28379681 38.6026821,5.16844122 39.9778926,5.16844122 C41.014061,5.16844122 41.9016081,5.80193904 42.27618,6.70249057 L42.27618,8.61598839 C41.9016081,9.51630769 41.014061,10.1500377 39.9778926,10.1500377 L39.9778926,10.1500377 Z M44.1532192,11.936596 L44.1532192,3.44466763 L42.27618,3.44466763 L42.27618,4.07793324 C41.6085457,3.64762845 40.8148157,3.38220029 39.9778926,3.38220029 C37.6169057,3.38220029 35.7029434,5.29709144 35.7029434,7.65923948 C35.7029434,10.1669898 37.9076459,11.9012134 39.9778926,11.9360464 C40.9174572,11.9520697 41.6960929,11.6153498 42.27618,11.232418 L42.27618,11.936596 L44.1532192,11.936596 Z" id="Fill-7"></path>
                            <path d="M50.0801858,7.1059971 C49.5934514,6.95714369 49.2323483,6.85426996 48.9836401,6.78530044 C48.9836401,6.78530044 48.6188215,6.67638897 48.2442496,6.45461829 C48.0443077,6.336418 47.9446851,6.18036575 47.9446851,5.98646154 C47.9446851,5.50251379 48.4379216,5.09868215 49.1187925,5.09868215 C49.5416662,5.09868215 49.8479652,5.15255733 50.2589956,5.25984325 C50.6693295,5.36759361 50.7396923,5.37270247 51.0099971,5.46977068 L51.790955,4.04997388 C51.4853527,3.88858055 51.0627112,3.74344267 50.5230305,3.61386357 C49.9826531,3.48521335 49.4887199,3.4204238 48.8194601,3.4204238 C47.8448302,3.4204238 47.2501132,3.63035123 46.7336546,4.04997388 C46.2171959,4.4693643 45.9587344,5.07755007 45.9587344,5.8733701 C45.9587344,6.35755007 46.1630885,6.69310885 46.3627983,6.99964006 C46.5620435,7.30593904 46.8086618,7.55905951 47.1021887,7.75807257 C47.3954833,7.95731785 47.7185022,8.11290566 48.0707808,8.2259971 C48.4228273,8.33908853 48.7453817,8.44962554 49.0391408,8.55644702 C49.3322032,8.66419739 49.7952511,8.77380552 49.9949608,8.90268795 C50.1946705,9.03203483 50.294061,9.20434253 50.294061,9.41961103 C50.294061,9.69943687 50.1914194,9.89798549 49.9861364,10.016418 C49.7808534,10.1348505 49.3370798,10.2261132 48.99827,10.1954601 C48.6840755,10.1673614 48.2010566,10.0147925 47.786775,9.86779681 C47.3483425,9.71174456 46.9825951,9.59633091 46.7129869,9.45630189 L45.7836401,11.0212366 C46.1243077,11.215373 46.8142351,11.4308737 47.3520581,11.6015559 C47.9117097,11.7794369 48.7641916,11.9366502 49.1782409,11.9366502 C50.3165864,11.9366502 50.8390827,11.706984 51.4087199,11.2392917 C51.6767025,11.0189144 51.8241626,10.7987692 51.8587634,10.749074 C52.2321742,10.2140377 52.2800116,9.60956749 52.2621306,9.31069956 C52.2070943,8.38135269 51.3418403,7.4587402 50.0801858,7.1059971" id="Fill-9"></path>
                            <path d="M61.2934456,10.0164644 C61.0881626,10.134897 60.6446212,10.2259274 60.3058113,10.1955065 C59.9916168,10.1671756 59.508598,10.0148389 59.0943164,9.86761103 C58.6561161,9.711791 58.2899042,9.59614514 58.0202961,9.45634833 L57.0909492,11.021283 C57.4316168,11.2154194 58.1215443,11.4309202 58.6593672,11.6016023 C59.2192511,11.7794833 60.0715007,11.9366967 60.4855501,11.9366967 C61.6238955,11.9366967 62.1463919,11.7070305 62.716029,11.2393382 C62.9840116,11.0187286 63.1314717,10.7988157 63.1660726,10.7488882 C63.5394833,10.2140842 63.5873208,9.60961393 63.569672,9.31074601 C63.5146357,8.38139913 62.6491495,7.45855443 61.3877271,7.10604354 C60.9009927,6.95719013 60.5396575,6.8543164 60.2911814,6.78511466 C60.2911814,6.78511466 59.9261306,6.67643541 59.551791,6.45466473 C59.3518491,6.33623222 59.2522264,6.18041219 59.2522264,5.98650798 C59.2522264,5.50256023 59.7452308,5.09872859 60.426566,5.09872859 C60.8489753,5.09872859 61.1552743,5.15260377 61.5663048,5.2598897 C61.9766386,5.36764006 62.0470015,5.37274891 62.3173062,5.46981713 L63.0982642,4.05002032 C62.7926618,3.88839478 62.3704848,3.74348911 61.8305718,3.61391001 C61.2901945,3.4852598 60.796029,3.42047025 60.1270015,3.42047025 C59.1523716,3.42047025 58.5576546,3.63039768 58.0409637,4.05002032 C57.5247373,4.46941074 57.2660435,5.0773643 57.2660435,5.87341655 C57.2660435,6.35759652 57.4706299,6.69292308 57.6701074,6.99945428 C57.8695849,7.30598549 58.1162032,7.55910595 58.40973,7.75788679 C58.7032569,7.9573643 59.0258113,8.1129521 59.37809,8.22604354 C59.7303687,8.33890276 60.0529231,8.44967199 60.3466821,8.55649347 C60.6397446,8.66424383 61.1027925,8.77361974 61.30227,8.9027344 C61.5019797,9.03208128 61.6016023,9.20438897 61.6016023,9.41965747 C61.6016023,9.69948331 61.4987286,9.89803193 61.2934456,10.0164644" id="Fill-11"></path>
                            <path d="M7.61985486,8.7705312 C7.61985486,9.53802032 6.99564586,10.1619971 6.22885341,10.1619971 L1.77370102,10.1619971 L1.77370102,7.03839768 L5.33735849,7.03839768 L6.22885341,7.03839768 C6.99564586,7.03839768 7.61985486,7.6628389 7.61985486,8.43032801 L7.61985486,8.7705312 Z M1.77370102,2.14040058 L5.33735849,2.14040058 C6.10461538,2.14040058 6.72882438,2.76460958 6.72882438,3.53186647 L6.72882438,3.87206967 C6.72882438,4.63932656 6.10461538,5.264 5.33735849,5.264 L1.77370102,5.264 L1.77370102,2.14040058 Z M7.88783745,5.73912337 C8.27239478,5.21476923 8.5025254,4.57058926 8.5025254,3.87206967 L8.5025254,3.53186647 C8.5025254,1.78603193 7.08249637,0.365538462 5.33735849,0.365538462 L-1.0658141e-14,0.365538462 L-1.0658141e-14,5.264 L-1.0658141e-14,7.03839768 L-1.0658141e-14,11.9363948 L6.22885341,11.9363948 C7.97375907,11.9363948 9.39355588,10.5159013 9.39355588,8.7705312 L9.39355588,8.43032801 C9.39355588,7.29360813 8.78955007,6.29784615 7.88783745,5.73912337 L7.88783745,5.73912337 Z" id="Fill-16"></path>
                        </g>
                    </g>
                </g>
                <path d="M10.8975421,0 L10.8975421,0.111904747 L10.8975421,5.10801268 L7.36665774,1.57544697 L7.28744637,1.49604877 L7.20804817,1.57544697 L1.57488651,7.21141092 L1.49548831,7.29080911 L1.57488651,7.37002049 L5.10577085,10.902773 L0.112278386,10.902773 L0,10.902773 L0,11.0148646 L0,18.9851354 L0,19.0976006 L0.112278386,19.0976006 L5.10577085,19.0976006 L1.57488651,22.6301663 L1.49548831,22.7093777 L1.57488651,22.7885891 L7.20804817,28.4247399 L7.28744637,28.504138 L7.36665774,28.4247399 L10.8975421,24.8918005 L10.8975421,29.8879084 L10.8975421,30 L11.0096336,30 L18.9763549,30 L19.0884465,30 L19.0884465,29.8879084 L19.0884465,24.8918005 L22.6193308,28.4247399 L22.698729,28.504138 L22.7779404,28.4247399 L28.4114757,22.7885891 L28.4905002,22.7093777 L28.4114757,22.6301663 L24.8804045,19.0976006 L29.8740838,19.0976006 L29.9859886,19.0976006 L29.9859886,10.902773 L29.8740838,10.902773 L24.8804045,10.902773 L28.4114757,7.37002049 L28.4905002,7.29080911 L28.4114757,7.21141092 L22.7779404,1.57544697 L22.698729,1.49604877 L22.6193308,1.57544697 L19.0884465,5.10801268 L19.0884465,0.111904747 L19.0884465,0 L10.8975421,0 Z M12.5488377,6.54259791 L17.4373377,6.54259791 L17.4373377,1.65222969 L12.5488377,1.65222969 L12.5488377,6.54259791 Z M19.2423856,7.29080911 L22.698729,3.83259747 L26.1552593,7.29080911 L22.698729,10.7488339 L19.2423856,7.29080911 Z M3.83072928,7.29080911 L7.28744637,3.83259747 L10.743603,7.29080911 L7.28744637,10.7488339 L3.83072928,7.29080911 Z M8.19109121,17.8186358 L8.19109121,12.1811773 L12.1755728,8.19464078 L17.8106026,8.19464078 L21.7950842,12.1811773 L21.7950842,17.8188227 L17.8106026,21.8051724 L12.1755728,21.8051724 L8.19109121,17.8186358 Z M23.4465666,17.4449973 L28.334693,17.4449973 L28.334693,12.5546291 L23.4465666,12.5546291 L23.4465666,17.4449973 Z M1.65129559,17.4453709 L6.5396088,17.4453709 L6.5396088,12.5548159 L1.65129559,12.5548159 L1.65129559,17.4453709 Z M19.2423856,22.7093777 L22.698729,19.2509792 L26.1552593,22.7093777 L22.698729,26.1675893 L19.2423856,22.7093777 Z M3.8309161,22.7093777 L7.28744637,19.2509792 L10.743603,22.7093777 L7.28744637,26.1675893 L3.8309161,22.7093777 Z M12.5488377,28.348144 L17.4373377,28.348144 L17.4373377,23.4575889 L12.5488377,23.4575889 L12.5488377,28.348144 Z" id="Fill-1"></path>
            </g>
        </g>
    </g>
</svg>